<svg width="67" height="60" viewBox="0 0 67 60" fill="none" xmlns="http://www.w3.org/2000/svg">
<path d="M65.9064 14.77C65.6006 14.3269 65.1922 13.9648 64.7162 13.7145C64.2402 13.4643 63.7108 13.3335 63.1733 13.3333H17.7318L13.8948 4.10001C13.3917 2.88409 12.5398 1.84531 11.4471 1.11538C10.3544 0.38546 9.07008 -0.0027368 7.75702 1.45241e-05H0V6.66668H7.75702L23.5304 44.6167C23.783 45.2239 24.2093 45.7425 24.7554 46.1073C25.3015 46.4721 25.9431 46.6667 26.5993 46.6667H53.1986C54.5851 46.6667 55.8253 45.8033 56.314 44.5067L66.2888 17.84C66.4773 17.3354 66.541 16.7925 66.4744 16.2578C66.4078 15.7232 66.2129 15.2126 65.9064 14.77Z" fill="white"/>
<path d="M28.2617 60C31.0161 60 33.249 57.7614 33.249 55C33.249 52.2386 31.0161 50 28.2617 50C25.5072 50 23.2743 52.2386 23.2743 55C23.2743 57.7614 25.5072 60 28.2617 60Z" fill="white"/>
<path d="M51.5361 60C54.2906 60 56.5235 57.7614 56.5235 55C56.5235 52.2386 54.2906 50 51.5361 50C48.7817 50 46.5488 52.2386 46.5488 55C46.5488 57.7614 48.7817 60 51.5361 60Z" fill="white"/>
</svg>
