<svg width="40" height="40" viewBox="0 0 40 40" fill="none" xmlns="http://www.w3.org/2000/svg">
<path d="M37.7778 0H2.22222C1.63285 0 1.06762 0.234126 0.650874 0.650874C0.234126 1.06762 0 1.63285 0 2.22222V37.7778C0 38.3671 0.234126 38.9324 0.650874 39.3491C1.06762 39.7659 1.63285 40 2.22222 40H21.3667V24.5333H16.1711V18.4778H21.3667V14.0333C21.3667 8.86667 24.5222 6.05111 29.1444 6.05111C30.6978 6.04667 32.2533 6.12667 33.8 6.28889V11.6667H30.6111C28.1044 11.6667 27.6156 12.8622 27.6156 14.6111V18.4667H33.6089L32.8311 24.5222H27.6133V40H37.7778C38.3671 40 38.9324 39.7659 39.3491 39.3491C39.7659 38.9324 40 38.3671 40 37.7778V2.22222C40 1.63285 39.7659 1.06762 39.3491 0.650874C38.9324 0.234126 38.3671 0 37.7778 0Z" fill="white"/>
</svg>
