<svg width="67" height="67" viewBox="0 0 67 67" fill="none" xmlns="http://www.w3.org/2000/svg">
<path d="M41.0929 48.4436V55.9436C41.0929 57.9327 40.4344 59.8404 39.2623 61.2469C38.0902 62.6534 36.5005 63.4436 34.8429 63.4436H9.8429C8.18529 63.4436 6.59558 62.6534 5.42348 61.2469C4.25138 59.8404 3.5929 57.9327 3.5929 55.9436V10.9436C3.5929 8.95448 4.25138 7.04683 5.42348 5.6403C6.59558 4.23378 8.18529 3.4436 9.8429 3.4436H33.5929C37.0445 3.4436 41.0929 6.80173 41.0929 10.9436V18.4436M51.0929 48.4436L63.5929 33.4436L51.0929 18.4436M21.0929 33.4436H61.0929" stroke="white" stroke-width="6" stroke-linecap="round" stroke-linejoin="round"/>
</svg>
