<svg width="60" height="60" viewBox="0 0 60 60" fill="none" xmlns="http://www.w3.org/2000/svg">
<path d="M33.9999 29.9998C40.5987 29.9998 46.4287 23.3422 46.9999 15.1579C47.2837 11.0463 46.0799 7.212 43.6099 4.36336C41.1662 1.54954 37.7499 0 33.9999 0C30.22 0 26.8012 1.54017 24.375 4.33658C21.9212 7.16379 20.725 11.0062 21 15.1553C21.5612 23.3409 27.39 29.9998 33.9999 29.9998ZM59.9224 54.6103C58.8674 48.3398 55.5737 43.0725 50.3987 39.3761C45.8024 36.0935 39.9787 34.2855 33.9999 34.2855C28.0212 34.2855 22.1975 36.0935 17.6012 39.3747C12.4262 43.0711 9.13249 48.3385 8.07749 54.609C7.83624 56.046 8.16374 57.467 8.97624 58.5076C9.34476 58.9818 9.80748 59.3619 10.3306 59.62C10.8538 59.8781 11.4241 60.0078 12 59.9996H55.9999C56.5761 60.0084 57.1469 59.8791 57.6705 59.6212C58.1941 59.3633 58.6572 58.9833 59.0262 58.509C59.8362 57.4683 60.1637 56.0474 59.9224 54.6103ZM11 34.2855V28.9284H16C16.5304 28.9284 17.0391 28.7026 17.4142 28.3007C17.7893 27.8989 18 27.3538 18 26.7855C18 26.2172 17.7893 25.6722 17.4142 25.2703C17.0391 24.8684 16.5304 24.6427 16 24.6427H11V19.2856C11 18.7173 10.7893 18.1722 10.4142 17.7704C10.0391 17.3685 9.53042 17.1427 8.99999 17.1427C8.46955 17.1427 7.96085 17.3685 7.58578 17.7704C7.2107 18.1722 6.99999 18.7173 6.99999 19.2856V24.6427H2C1.46956 24.6427 0.960858 24.8684 0.585785 25.2703C0.210713 25.6722 0 26.2172 0 26.7855C0 27.3538 0.210713 27.8989 0.585785 28.3007C0.960858 28.7026 1.46956 28.9284 2 28.9284H6.99999V34.2855C6.99999 34.8538 7.2107 35.3988 7.58578 35.8007C7.96085 36.2026 8.46955 36.4283 8.99999 36.4283C9.53042 36.4283 10.0391 36.2026 10.4142 35.8007C10.7893 35.3988 11 34.8538 11 34.2855Z" fill="white"/>
</svg>
