<svg width="21" height="20" viewBox="0 0 21 20" fill="none" xmlns="http://www.w3.org/2000/svg">
<path d="M20.1516 6.10696C20.1517 5.92548 20.1023 5.74742 20.0086 5.59196L17.2996 1.07696C17.1211 0.781805 16.8697 0.537537 16.5696 0.367656C16.2694 0.197776 15.9305 0.108 15.5856 0.106964H4.71761C4.01961 0.106964 3.36261 0.478964 3.00361 1.07796L0.294611 5.59196C0.200961 5.74742 0.151517 5.92548 0.151611 6.10696C0.151611 7.11196 0.537612 8.02096 1.15161 8.72496V18.107C1.15161 18.3722 1.25697 18.6265 1.4445 18.8141C1.63204 19.0016 1.8864 19.107 2.15161 19.107H10.1516C10.4168 19.107 10.6712 19.0016 10.8587 18.8141C11.0463 18.6265 11.1516 18.3722 11.1516 18.107V13.107H15.1516V18.107C15.1516 18.3722 15.257 18.6265 15.4445 18.8141C15.632 19.0016 15.8864 19.107 16.1516 19.107H18.1516C18.4168 19.107 18.6712 19.0016 18.8587 18.8141C19.0463 18.6265 19.1516 18.3722 19.1516 18.107V8.72496C19.7656 8.02096 20.1516 7.11196 20.1516 6.10696ZM18.1356 6.35796C18.0741 6.84087 17.8387 7.28482 17.4736 7.60674C17.1084 7.92866 16.6384 8.10649 16.1516 8.10696C15.0486 8.10696 14.1516 7.20996 14.1516 6.10696C14.1516 6.03896 14.1266 5.97896 14.1126 5.91496L14.1326 5.91096L13.3716 2.10696H15.5856L18.1356 6.35796ZM8.15861 6.17196L8.97061 2.10696H11.3316L12.1446 6.17196C12.1096 7.24496 11.2316 8.10696 10.1516 8.10696C9.07161 8.10696 8.19361 7.24496 8.15861 6.17196ZM4.71761 2.10696H6.93161L6.17161 5.91096L6.19161 5.91496C6.17661 5.97896 6.15161 6.03896 6.15161 6.10696C6.15161 7.20996 5.25461 8.10696 4.15161 8.10696C3.6648 8.10649 3.19484 7.92866 2.82967 7.60674C2.4645 7.28482 2.22913 6.84087 2.16761 6.35796L4.71761 2.10696ZM8.15161 14.107H4.15161V11.107H8.15161V14.107Z" fill="white"/>
</svg>
