<svg width="20" height="23" viewBox="0 0 20 23" fill="none" xmlns="http://www.w3.org/2000/svg">
<path d="M4.44446 10.6778H6.66668V12.8778H4.44446V10.6778ZM4.44446 15.0778H6.66668V17.2778H4.44446V15.0778ZM8.8889 10.6778H11.1111V12.8778H8.8889V10.6778ZM8.8889 15.0778H11.1111V17.2778H8.8889V15.0778ZM13.3333 10.6778H15.5556V12.8778H13.3333V10.6778ZM13.3333 15.0778H15.5556V17.2778H13.3333V15.0778Z" fill="#939393"/>
<path d="M2.22222 22.7778H17.7778C19.0033 22.7778 20 21.7911 20 20.5778V5.17777C20 3.96447 19.0033 2.97777 17.7778 2.97777H15.5556V0.777771H13.3333V2.97777H6.66667V0.777771H4.44444V2.97777H2.22222C0.996667 2.97777 0 3.96447 0 5.17777V20.5778C0 21.7911 0.996667 22.7778 2.22222 22.7778ZM17.7778 7.37777L17.7789 20.5778H2.22222V7.37777H17.7778Z" fill="#939393"/>
</svg>
