<svg width="33" height="30" viewBox="0 0 33 30" fill="none" xmlns="http://www.w3.org/2000/svg">
<path d="M32.5723 15.486L17.7239 0.475094C17.0987 -0.158365 15.8976 -0.158365 15.2723 0.475094L0.423976 15.486C0.210253 15.7015 0.0699661 15.9689 0.020174 16.2557C-0.0296181 16.5424 0.0132295 16.8361 0.143507 17.1011C0.407478 17.643 0.998112 17.9913 1.64979 17.9913H3.94942C4.5017 17.9913 4.94942 18.439 4.94942 18.9913V28.4989C4.94942 28.897 5.12324 29.2788 5.43264 29.5603C5.74204 29.8419 6.16168 30 6.59924 30H11.5487C11.9862 30 12.4059 29.8419 12.7153 29.5603C13.0247 29.2788 13.1985 28.897 13.1985 28.4989V23.4946C13.1985 22.9423 13.6462 22.4946 14.1985 22.4946H18.7978C19.35 22.4946 19.7978 22.9423 19.7978 23.4946V28.4989C19.7978 28.897 19.9716 29.2788 20.281 29.5603C20.5904 29.8419 21.01 30 21.4476 30H26.397C26.8346 30 27.2542 29.8419 27.5636 29.5603C27.873 29.2788 28.0468 28.897 28.0468 28.4989V18.9913C28.0468 18.439 28.4946 17.9913 29.0468 17.9913H31.3465C31.666 17.9925 31.979 17.9092 32.2473 17.7513C32.5157 17.5935 32.7277 17.3681 32.8577 17.1025C32.9876 16.8369 33.0298 16.5427 32.9792 16.2556C32.9285 15.9686 32.7871 15.7012 32.5723 15.486Z" fill="white"/>
</svg>
