<svg width="49" height="41" viewBox="0 0 49 41" fill="none" xmlns="http://www.w3.org/2000/svg">
<path d="M49 18.8401C49 18.2878 48.5523 17.8401 48 17.8401H12.6013C11.7103 17.8401 11.2642 16.7627 11.8943 16.1328L23.5636 4.46838C23.9543 4.07782 23.9543 3.44443 23.5636 3.05387L21.2154 0.706669C20.8249 0.31634 20.192 0.316339 19.8015 0.706668L0.707546 19.7927C0.316827 20.1833 0.316826 20.8167 0.707545 21.2073L19.8015 40.2933C20.192 40.6837 20.8249 40.6837 21.2154 40.2933L23.5636 37.9461C23.9543 37.5556 23.9543 36.9222 23.5636 36.5316L11.8943 24.8672C11.2642 24.2373 11.7103 23.1599 12.6013 23.1599H48C48.5523 23.1599 49 22.7122 49 22.1599V18.8401Z" fill="white"/>
</svg>
