<svg width="35" height="30" viewBox="0 0 35 30" fill="none" xmlns="http://www.w3.org/2000/svg">
<path d="M33.25 0H1.75C1.28587 0 0.840752 0.185924 0.512563 0.516871C0.184374 0.847817 0 1.29668 0 1.76471V26.4706C0 27.4066 0.368749 28.3044 1.02513 28.9663C1.6815 29.6282 2.57174 30 3.5 30H31.5C32.4283 30 33.3185 29.6282 33.9749 28.9663C34.6313 28.3044 35 27.4066 35 26.4706V1.76471C35 1.29668 34.8156 0.847817 34.4874 0.516871C34.1592 0.185924 33.7141 0 33.25 0ZM17.5 15.8824C12.0433 15.8824 7.54694 11.6656 7.04632 6.29314C6.99508 5.74323 7.44772 5.29412 8 5.29412H9.5C10.0523 5.29412 10.4926 5.74436 10.5696 6.29125C11.0513 9.71354 13.9751 12.3529 17.5 12.3529C21.0249 12.3529 23.9487 9.71354 24.4304 6.29125C24.5074 5.74436 24.9477 5.29412 25.5 5.29412H27C27.5523 5.29412 28.0049 5.74323 27.9537 6.29313C27.4531 11.6656 22.9567 15.8824 17.5 15.8824Z" fill="white"/>
</svg>
